<svg width="56" height="56" viewBox="0 0 56 56" fill="none" xmlns="http://www.w3.org/2000/svg">
<path fill-rule="evenodd" clip-rule="evenodd" d="M15.3998 15.4C17.0085 15.4 18.2252 14.8287 19.151 13.9399C19.8327 13.2854 20.349 12.4404 20.7026 11.8617L20.7028 11.8613C20.7577 11.7716 20.8086 11.6882 20.8556 11.613C21.2763 10.9399 21.5794 10.5433 21.9506 10.2733C22.2664 10.0437 22.7815 9.79998 23.7998 9.79998H32.1998C33.2181 9.79998 33.7333 10.0437 34.049 10.2733C34.4202 10.5433 34.7234 10.9399 35.144 11.613C35.1911 11.6883 35.2421 11.7718 35.297 11.8617C35.6506 12.4404 36.1669 13.2854 36.8486 13.9399C37.7744 14.8287 38.9911 15.4 40.5998 15.4C42.652 15.4 43.3715 15.4101 43.9289 15.521C46.428 16.0181 48.3817 17.9718 48.8788 20.4709C48.9897 21.0283 48.9998 21.7478 48.9998 23.8V33.46C48.9998 35.8468 48.9982 37.5107 48.8924 38.8061C48.7885 40.0769 48.595 40.8071 48.3132 41.3601C47.7092 42.5455 46.7454 43.5093 45.56 44.1133C45.0069 44.3951 44.2768 44.5887 43.0059 44.6925C41.7106 44.7983 40.0467 44.8 37.6598 44.8H18.336C15.9491 44.8 14.2852 44.7983 12.9899 44.6925C11.719 44.5887 10.9889 44.3951 10.4358 44.1133C9.25042 43.5093 8.28664 42.5455 7.68264 41.3601C7.40085 40.8071 7.20728 40.0769 7.10345 38.8061C6.99761 37.5107 6.99598 35.8468 6.99598 33.46V23.8038C6.99598 21.7478 7.00619 21.0271 7.11747 20.4687C7.61516 17.9713 9.56733 16.0192 12.0647 15.5215C12.6231 15.4102 13.3438 15.4 15.3998 15.4ZM23.7998 5.59998C22.0181 5.59998 20.6083 6.05627 19.4803 6.87663C18.4077 7.65667 17.7484 8.66002 17.294 9.38698C17.2176 9.50919 17.1477 9.62186 17.083 9.72609C16.7032 10.338 16.504 10.6589 16.2424 10.9101C16.0744 11.0713 15.8911 11.2 15.3998 11.2L15.1563 11.1999C13.4362 11.1995 12.2637 11.1992 11.2438 11.4025C7.08157 12.2319 3.82795 15.4856 2.99847 19.6478C2.79522 20.6677 2.79551 21.8402 2.79594 23.5603L2.79598 23.8038V33.46L2.79598 33.5499C2.79596 35.8258 2.79594 37.6615 2.91739 39.1481C3.04245 40.6787 3.30665 42.0231 3.94041 43.2669C4.94708 45.2426 6.55337 46.8489 8.52908 47.8555C9.77289 48.4893 11.1173 48.7535 12.6479 48.8786C14.1344 49 15.9701 49 18.246 49H18.336H37.6598H37.7498C40.0257 49 41.8614 49 43.3479 48.8786C44.8785 48.7535 46.2229 48.4893 47.4667 47.8555C49.4424 46.8489 51.0487 45.2426 52.0554 43.2669C52.6892 42.0231 52.9534 40.6787 53.0784 39.1481C53.1999 37.6616 53.1998 35.8258 53.1998 33.5499V33.46V23.8L53.1999 23.5568C53.2003 21.8399 53.2006 20.6696 52.9981 19.6515C52.1696 15.4863 48.9135 12.2303 44.7483 11.4017C43.7302 11.1992 42.5599 11.1995 40.8429 11.1999L40.5998 11.2C40.1085 11.2 39.9252 11.0713 39.7573 10.9101C39.4957 10.659 39.2965 10.3381 38.9167 9.72612C38.852 9.62188 38.782 9.5092 38.7056 9.38698C38.2513 8.66002 37.5919 7.65667 36.5194 6.87663C35.3914 6.05627 33.9815 5.59998 32.1998 5.59998H23.7998ZM34.2998 28.7C34.2998 32.1794 31.4792 35 27.9998 35C24.5204 35 21.6998 32.1794 21.6998 28.7C21.6998 25.2206 24.5204 22.4 27.9998 22.4C31.4792 22.4 34.2998 25.2206 34.2998 28.7ZM38.4998 28.7C38.4998 34.499 33.7988 39.2 27.9998 39.2C22.2008 39.2 17.4998 34.499 17.4998 28.7C17.4998 22.901 22.2008 18.2 27.9998 18.2C33.7988 18.2 38.4998 22.901 38.4998 28.7Z" fill="white"/>
</svg>
