<svg width="113" height="32" viewBox="0 0 113 32" fill="none" xmlns="http://www.w3.org/2000/svg">
<path d="M29.632 10.632C30 10.632 30.264 10.712 30.424 10.872C30.6 11.032 30.688 11.24 30.688 11.496C30.688 11.912 30.56 12.28 30.304 12.6C30.064 12.92 29.68 13.088 29.152 13.104C27.888 13.12 26.752 13.024 25.744 12.816C24.624 15.2 23.272 17.184 21.688 18.768C20.12 20.336 18.568 21.12 17.032 21.12C15.624 21.12 14.568 20.376 13.864 18.888C13.16 17.384 12.76 15.376 12.664 12.864C11.704 15.648 10.616 17.72 9.4 19.08C8.2 20.44 6.92 21.12 5.56 21.12C4.024 21.12 2.864 20.168 2.08 18.264C1.296 16.344 0.904 13.768 0.904 10.536C0.904 8.184 1.112 5.6 1.528 2.784C1.64 1.984 1.84 1.432 2.128 1.128C2.432 0.807999 2.904 0.647999 3.544 0.647999C4.024 0.647999 4.392 0.751999 4.648 0.959999C4.92 1.168 5.056 1.552 5.056 2.112C5.056 2.224 5.04 2.44 5.008 2.76C4.528 6.04 4.288 8.832 4.288 11.136C4.288 13.28 4.472 14.936 4.84 16.104C5.208 17.272 5.704 17.856 6.328 17.856C6.888 17.856 7.56 17.272 8.344 16.104C9.144 14.92 9.936 13.176 10.72 10.872C11.504 8.552 12.168 5.792 12.712 2.592C12.84 1.856 13.072 1.352 13.408 1.08C13.76 0.791999 14.232 0.647999 14.824 0.647999C15.32 0.647999 15.68 0.759999 15.904 0.983999C16.144 1.192 16.264 1.512 16.264 1.944C16.264 2.2 16.248 2.4 16.216 2.544C15.768 5.152 15.544 7.76 15.544 10.368C15.544 12.144 15.6 13.56 15.712 14.616C15.84 15.672 16.072 16.48 16.408 17.04C16.76 17.584 17.264 17.856 17.92 17.856C18.688 17.856 19.544 17.28 20.488 16.128C21.432 14.96 22.296 13.512 23.08 11.784C22.104 11.176 21.368 10.392 20.872 9.432C20.376 8.456 20.128 7.336 20.128 6.072C20.128 4.808 20.32 3.744 20.704 2.88C21.104 2 21.64 1.344 22.312 0.912C23 0.48 23.76 0.263999 24.592 0.263999C25.616 0.263999 26.424 0.631999 27.016 1.368C27.624 2.104 27.928 3.112 27.928 4.392C27.928 6.2 27.536 8.208 26.752 10.416C27.568 10.56 28.528 10.632 29.632 10.632ZM22.552 5.904C22.552 7.472 23.056 8.632 24.064 9.384C24.688 7.592 25 6.112 25 4.944C25 4.272 24.912 3.784 24.736 3.48C24.56 3.16 24.32 3 24.016 3C23.584 3 23.232 3.256 22.96 3.768C22.688 4.264 22.552 4.976 22.552 5.904ZM30.1462 21.12C29.1542 21.12 28.3622 20.76 27.7702 20.04C27.1782 19.32 26.8822 18.376 26.8822 17.208C26.8822 15.928 27.1782 14.72 27.7702 13.584C28.3622 12.432 29.1462 11.512 30.1222 10.824C31.1142 10.12 32.1622 9.768 33.2662 9.768C33.6182 9.768 33.8502 9.84 33.9622 9.984C34.0902 10.112 34.1942 10.352 34.2742 10.704C34.6102 10.64 34.9622 10.608 35.3302 10.608C36.1142 10.608 36.5062 10.888 36.5062 11.448C36.5062 11.784 36.3862 12.584 36.1462 13.848C35.7782 15.688 35.5942 16.968 35.5942 17.688C35.5942 17.928 35.6502 18.12 35.7622 18.264C35.8902 18.408 36.0502 18.48 36.2422 18.48C36.5462 18.48 36.9142 18.288 37.3462 17.904C37.7782 17.504 38.3622 16.864 39.0982 15.984C39.2902 15.76 39.5062 15.648 39.7462 15.648C39.9542 15.648 40.1142 15.744 40.2262 15.936C40.3542 16.128 40.4182 16.392 40.4182 16.728C40.4182 17.368 40.2662 17.864 39.9622 18.216C39.3062 19.032 38.6102 19.72 37.8742 20.28C37.1382 20.84 36.4262 21.12 35.7382 21.12C35.2102 21.12 34.7222 20.944 34.2742 20.592C33.8422 20.224 33.5142 19.728 33.2902 19.104C32.4582 20.448 31.4102 21.12 30.1462 21.12ZM31.0102 18.696C31.3622 18.696 31.6982 18.488 32.0182 18.072C32.3382 17.656 32.5702 17.104 32.7142 16.416L33.6022 12C32.9302 12.016 32.3062 12.272 31.7302 12.768C31.1702 13.248 30.7222 13.888 30.3862 14.688C30.0502 15.488 29.8822 16.336 29.8822 17.232C29.8822 17.728 29.9782 18.096 30.1702 18.336C30.3782 18.576 30.6582 18.696 31.0102 18.696ZM49.7749 15.648C49.9829 15.648 50.1429 15.744 50.2549 15.936C50.3829 16.128 50.4469 16.392 50.4469 16.728C50.4469 17.32 50.2949 17.816 49.9909 18.216C49.2389 19.192 48.3029 19.96 47.1829 20.52C46.0789 21.08 44.8309 21.36 43.4389 21.36C42.3509 21.36 41.4069 21.2 40.6069 20.88C39.8069 20.544 39.1909 20.096 38.7589 19.536C38.3429 18.96 38.1349 18.32 38.1349 17.616C38.1349 16.56 38.5589 15.624 39.4069 14.808C40.2549 13.992 41.4709 13.208 43.0549 12.456L39.1189 12.552C38.7669 12.568 38.4949 12.448 38.3029 12.192C38.1269 11.92 38.0389 11.6 38.0389 11.232C38.0389 10.848 38.1269 10.512 38.3029 10.224C38.4949 9.92 38.7509 9.768 39.0709 9.768C39.8069 9.768 40.7909 9.824 42.0229 9.936C42.2789 9.952 42.7429 9.984 43.4149 10.032C44.1029 10.08 44.6789 10.104 45.1429 10.104C45.3029 10.104 45.6069 10.04 46.0549 9.912C46.1349 9.896 46.2869 9.856 46.5109 9.792C46.7509 9.728 46.9509 9.696 47.1109 9.696C47.3669 9.696 47.5749 9.808 47.7349 10.032C47.9109 10.256 47.9989 10.6 47.9989 11.064C47.9989 11.576 47.8789 11.976 47.6389 12.264C47.3989 12.552 47.0229 12.808 46.5109 13.032C45.0549 13.656 43.8469 14.328 42.8869 15.048C41.9269 15.752 41.4469 16.456 41.4469 17.16C41.4469 17.608 41.6549 17.976 42.0709 18.264C42.4869 18.552 43.1029 18.696 43.9189 18.696C44.8149 18.696 45.7189 18.472 46.6309 18.024C47.5589 17.576 48.3909 16.896 49.1269 15.984C49.3189 15.76 49.5349 15.648 49.7749 15.648ZM51.004 21.12C50.012 21.12 49.22 20.76 48.628 20.04C48.036 19.32 47.74 18.376 47.74 17.208C47.74 15.928 48.036 14.72 48.628 13.584C49.22 12.432 50.004 11.512 50.98 10.824C51.972 10.12 53.02 9.768 54.124 9.768C54.476 9.768 54.708 9.84 54.82 9.984C54.948 10.112 55.052 10.352 55.132 10.704C55.468 10.64 55.82 10.608 56.188 10.608C56.972 10.608 57.364 10.888 57.364 11.448C57.364 11.784 57.244 12.584 57.004 13.848C56.636 15.688 56.452 16.968 56.452 17.688C56.452 17.928 56.508 18.12 56.62 18.264C56.748 18.408 56.908 18.48 57.1 18.48C57.404 18.48 57.772 18.288 58.204 17.904C58.636 17.504 59.22 16.864 59.956 15.984C60.148 15.76 60.364 15.648 60.604 15.648C60.812 15.648 60.972 15.744 61.084 15.936C61.212 16.128 61.276 16.392 61.276 16.728C61.276 17.368 61.124 17.864 60.82 18.216C60.164 19.032 59.468 19.72 58.732 20.28C57.996 20.84 57.284 21.12 56.596 21.12C56.068 21.12 55.58 20.944 55.132 20.592C54.7 20.224 54.372 19.728 54.148 19.104C53.316 20.448 52.268 21.12 51.004 21.12ZM51.868 18.696C52.22 18.696 52.556 18.488 52.876 18.072C53.196 17.656 53.428 17.104 53.572 16.416L54.46 12C53.788 12.016 53.164 12.272 52.588 12.768C52.028 13.248 51.58 13.888 51.244 14.688C50.908 15.488 50.74 16.336 50.74 17.232C50.74 17.728 50.836 18.096 51.028 18.336C51.236 18.576 51.516 18.696 51.868 18.696ZM62.0774 21.12C61.0854 21.12 60.2934 20.76 59.7014 20.04C59.1094 19.32 58.8134 18.376 58.8134 17.208C58.8134 15.928 59.1094 14.72 59.7014 13.584C60.2934 12.432 61.0774 11.512 62.0534 10.824C63.0454 10.12 64.0934 9.768 65.1974 9.768C65.5494 9.768 65.7814 9.84 65.8934 9.984C66.0214 10.112 66.1254 10.352 66.2054 10.704C66.5414 10.64 66.8934 10.608 67.2614 10.608C68.0454 10.608 68.4374 10.888 68.4374 11.448C68.4374 11.784 68.3174 12.584 68.0774 13.848C67.7094 15.688 67.5254 16.968 67.5254 17.688C67.5254 17.928 67.5814 18.12 67.6934 18.264C67.8214 18.408 67.9814 18.48 68.1734 18.48C68.4774 18.48 68.8454 18.288 69.2774 17.904C69.7094 17.504 70.2934 16.864 71.0294 15.984C71.2214 15.76 71.4374 15.648 71.6774 15.648C71.8854 15.648 72.0454 15.744 72.1574 15.936C72.2854 16.128 72.3494 16.392 72.3494 16.728C72.3494 17.368 72.1974 17.864 71.8934 18.216C71.2374 19.032 70.5414 19.72 69.8054 20.28C69.0694 20.84 68.3574 21.12 67.6694 21.12C67.1414 21.12 66.6534 20.944 66.2054 20.592C65.7734 20.224 65.4454 19.728 65.2214 19.104C64.3894 20.448 63.3414 21.12 62.0774 21.12ZM62.9414 18.696C63.2934 18.696 63.6294 18.488 63.9494 18.072C64.2694 17.656 64.5014 17.104 64.6454 16.416L65.5334 12C64.8614 12.016 64.2374 12.272 63.6614 12.768C63.1014 13.248 62.6534 13.888 62.3174 14.688C61.9814 15.488 61.8134 16.336 61.8134 17.232C61.8134 17.728 61.9094 18.096 62.1014 18.336C62.3094 18.576 62.5894 18.696 62.9414 18.696ZM73.1509 21.12C72.1589 21.12 71.3669 20.76 70.7749 20.04C70.1829 19.32 69.8869 18.376 69.8869 17.208C69.8869 15.928 70.1829 14.72 70.7749 13.584C71.3669 12.432 72.1509 11.512 73.1269 10.824C74.1189 10.12 75.1669 9.768 76.2709 9.768C76.6229 9.768 76.8549 9.84 76.9669 9.984C77.0949 10.112 77.1989 10.352 77.2789 10.704C77.6149 10.64 77.9669 10.608 78.3349 10.608C79.1189 10.608 79.5109 10.888 79.5109 11.448C79.5109 11.784 79.3909 12.584 79.1509 13.848C78.7829 15.688 78.5989 16.968 78.5989 17.688C78.5989 17.928 78.6549 18.12 78.7669 18.264C78.8949 18.408 79.0549 18.48 79.2469 18.48C79.5509 18.48 79.9189 18.288 80.3509 17.904C80.7829 17.504 81.3669 16.864 82.1029 15.984C82.2949 15.76 82.5109 15.648 82.7509 15.648C82.9589 15.648 83.1189 15.744 83.2309 15.936C83.3589 16.128 83.4229 16.392 83.4229 16.728C83.4229 17.368 83.2709 17.864 82.9669 18.216C82.3109 19.032 81.6149 19.72 80.8789 20.28C80.1429 20.84 79.4309 21.12 78.7429 21.12C78.2149 21.12 77.7269 20.944 77.2789 20.592C76.8469 20.224 76.5189 19.728 76.2949 19.104C75.4629 20.448 74.4149 21.12 73.1509 21.12ZM74.0149 18.696C74.3669 18.696 74.7029 18.488 75.0229 18.072C75.3429 17.656 75.5749 17.104 75.7189 16.416L76.6069 12C75.9349 12.016 75.3109 12.272 74.7349 12.768C74.1749 13.248 73.7269 13.888 73.3909 14.688C73.0549 15.488 72.8869 16.336 72.8869 17.232C72.8869 17.728 72.9829 18.096 73.1749 18.336C73.3829 18.576 73.6629 18.696 74.0149 18.696ZM84.2243 21.12C83.2323 21.12 82.4403 20.76 81.8483 20.04C81.2563 19.32 80.9603 18.376 80.9603 17.208C80.9603 15.928 81.2563 14.72 81.8483 13.584C82.4403 12.432 83.2243 11.512 84.2003 10.824C85.1923 10.12 86.2403 9.768 87.3443 9.768C87.6963 9.768 87.9283 9.84 88.0403 9.984C88.1683 10.112 88.2723 10.352 88.3523 10.704C88.6883 10.64 89.0403 10.608 89.4083 10.608C90.1923 10.608 90.5843 10.888 90.5843 11.448C90.5843 11.784 90.4643 12.584 90.2243 13.848C89.8563 15.688 89.6723 16.968 89.6723 17.688C89.6723 17.928 89.7283 18.12 89.8403 18.264C89.9683 18.408 90.1283 18.48 90.3203 18.48C90.6243 18.48 90.9923 18.288 91.4243 17.904C91.8563 17.504 92.4403 16.864 93.1763 15.984C93.3683 15.76 93.5843 15.648 93.8243 15.648C94.0323 15.648 94.1923 15.744 94.3043 15.936C94.4323 16.128 94.4963 16.392 94.4963 16.728C94.4963 17.368 94.3443 17.864 94.0403 18.216C93.3843 19.032 92.6883 19.72 91.9523 20.28C91.2163 20.84 90.5043 21.12 89.8163 21.12C89.2883 21.12 88.8003 20.944 88.3523 20.592C87.9203 20.224 87.5923 19.728 87.3683 19.104C86.5363 20.448 85.4883 21.12 84.2243 21.12ZM85.0883 18.696C85.4403 18.696 85.7763 18.488 86.0963 18.072C86.4163 17.656 86.6483 17.104 86.7923 16.416L87.6803 12C87.0083 12.016 86.3843 12.272 85.8083 12.768C85.2483 13.248 84.8003 13.888 84.4643 14.688C84.1283 15.488 83.9603 16.336 83.9603 17.232C83.9603 17.728 84.0563 18.096 84.2483 18.336C84.4563 18.576 84.7363 18.696 85.0883 18.696ZM95.2977 21.12C94.3057 21.12 93.5137 20.76 92.9217 20.04C92.3297 19.32 92.0337 18.376 92.0337 17.208C92.0337 15.928 92.3297 14.72 92.9217 13.584C93.5137 12.432 94.2977 11.512 95.2737 10.824C96.2657 10.12 97.3137 9.768 98.4177 9.768C98.7697 9.768 99.0017 9.84 99.1137 9.984C99.2417 10.112 99.3457 10.352 99.4257 10.704C99.7617 10.64 100.114 10.608 100.482 10.608C101.266 10.608 101.658 10.888 101.658 11.448C101.658 11.784 101.538 12.584 101.298 13.848C100.93 15.688 100.746 16.968 100.746 17.688C100.746 17.928 100.802 18.12 100.914 18.264C101.042 18.408 101.202 18.48 101.394 18.48C101.698 18.48 102.066 18.288 102.498 17.904C102.93 17.504 103.514 16.864 104.25 15.984C104.442 15.76 104.658 15.648 104.898 15.648C105.106 15.648 105.266 15.744 105.378 15.936C105.506 16.128 105.57 16.392 105.57 16.728C105.57 17.368 105.418 17.864 105.114 18.216C104.458 19.032 103.762 19.72 103.026 20.28C102.29 20.84 101.578 21.12 100.89 21.12C100.362 21.12 99.8737 20.944 99.4257 20.592C98.9937 20.224 98.6657 19.728 98.4417 19.104C97.6097 20.448 96.5617 21.12 95.2977 21.12ZM96.1617 18.696C96.5137 18.696 96.8497 18.488 97.1697 18.072C97.4897 17.656 97.7217 17.104 97.8657 16.416L98.7537 12C98.0817 12.016 97.4577 12.272 96.8817 12.768C96.3217 13.248 95.8737 13.888 95.5377 14.688C95.2017 15.488 95.0337 16.336 95.0337 17.232C95.0337 17.728 95.1297 18.096 95.3217 18.336C95.5297 18.576 95.8097 18.696 96.1617 18.696ZM112.923 13.68C112.923 14.944 112.627 16.144 112.035 17.28C111.459 18.4 110.683 19.312 109.707 20.016C108.747 20.72 107.715 21.088 106.611 21.12C106.403 24.208 105.931 26.784 105.195 28.848C104.459 30.928 103.379 31.968 101.955 31.968C101.091 31.968 100.451 31.656 100.035 31.032C99.6192 30.408 99.4112 29.544 99.4112 28.44C99.4112 26.872 99.7712 25.04 100.491 22.944C101.211 20.864 102.323 18.568 103.827 16.056C103.827 13.72 103.811 12.096 103.779 11.184C103.763 10.72 103.947 10.352 104.331 10.08C104.715 9.808 105.195 9.672 105.771 9.672C106.107 9.672 106.347 9.744 106.491 9.888C106.651 10.016 106.739 10.28 106.755 10.68C106.755 11.08 106.763 11.376 106.779 11.568C107.291 10.928 107.795 10.472 108.291 10.2C108.787 9.912 109.315 9.768 109.875 9.768C110.771 9.768 111.499 10.128 112.059 10.848C112.635 11.568 112.923 12.512 112.923 13.68ZM106.731 18.816C107.307 18.688 107.835 18.376 108.315 17.88C108.811 17.368 109.203 16.744 109.491 16.008C109.779 15.256 109.923 14.472 109.923 13.656C109.923 13.176 109.827 12.816 109.635 12.576C109.443 12.32 109.187 12.192 108.867 12.192C108.291 12.192 107.595 12.8 106.779 14.016C106.763 14.72 106.755 15.752 106.755 17.112C106.755 17.848 106.747 18.416 106.731 18.816ZM102.147 29.616C102.579 29.616 102.939 28.672 103.227 26.784C103.515 24.912 103.699 22.576 103.779 19.776C103.091 21.376 102.547 22.904 102.147 24.36C101.747 25.816 101.547 27.04 101.547 28.032C101.547 28.544 101.611 28.936 101.739 29.208C101.851 29.48 101.987 29.616 102.147 29.616Z" fill="#5159F6"/>
</svg>
